<svg xmlns="http://www.w3.org/2000/svg" xmlns:xlink="http://www.w3.org/1999/xlink" version="1.1" x="0px" y="0px" viewBox="0 0 512 640" style="enable-background:new 0 0 512 512;" xml:space="preserve"><g><rect x="47.404" y="267.971" width="11.132" height="28.523"/><path d="M422.624,228.975c-9.706,0-17.591,7.885-17.591,17.576v71.361c0,9.701,7.885,17.592,17.576,17.592h0.015   c9.691,0,17.576-7.891,17.576-17.592v-71.361C440.2,236.859,432.315,228.975,422.624,228.975z"/><path d="M89.378,335.504c9.7,0,17.591-7.891,17.591-17.592v-71.361c0-9.691-7.891-17.576-17.591-17.576   c-9.7,0-17.592,7.885-17.592,17.576v71.361C71.786,327.613,79.678,335.504,89.378,335.504z"/><path d="M236.272,486.514h24.138c3.822,0,6.932-3.109,6.932-6.932c0-3.824-3.109-6.934-6.932-6.934h-24.138   c-3.814,0-6.918,3.109-6.918,6.934C229.354,483.404,232.458,486.514,236.272,486.514z"/><path d="M466.972,259.971h-1.791c0.502-6.375,0.771-12.787,0.771-19.115c0-59.785-21.658-116.008-60.983-158.307   c-39.4-42.379-91.806-65.719-147.564-65.719c-55.757,0-108.16,23.336-147.557,65.707c-39.329,42.299-60.984,98.525-60.977,158.318   c0,6.348,0.268,12.762,0.768,19.115h-4.622c-3.094,0-5.611,2.523-5.611,5.625v33.287c0,3.094,2.517,5.611,5.611,5.611h3.875   c-0.188,41.785,19.504,85.227,54.47,119.813c33.565,33.201,76.291,53.9,118.176,57.482c1.072,7.188,7.262,12.725,14.736,12.725   h24.138c8.233,0,14.932-6.699,14.932-14.932c0-8.234-6.698-14.934-14.932-14.934h-24.138c-6.195,0-11.518,3.801-13.769,9.195   c-40.132-3.352-81.189-23.248-113.518-55.227c-33.451-33.088-52.289-74.469-52.096-114.123h4.021c1.051,0,2.032-0.295,2.875-0.797   v14.215c0,14.111,11.48,25.592,25.592,25.592c14.111,0,25.591-11.48,25.591-25.592v-71.361c0-14.102-11.48-25.576-25.591-25.576   c-14.111,0-25.592,11.475-25.592,25.576v14.219c-0.843-0.504-1.824-0.799-2.875-0.799h-3.25c-0.516-6.35-0.792-12.768-0.792-19.115   c-0.007-57.766,20.888-112.057,58.835-152.871c37.866-40.727,88.189-63.154,141.698-63.154   c110.582,0,200.548,96.908,200.548,216.025c0,6.326-0.279,12.742-0.798,19.115h-6.063c-1.058,0-2.045,0.299-2.891,0.809v-14.229   c0-14.102-11.474-25.576-25.591-25.576c-14.103,0-25.576,11.475-25.576,25.576v71.361c0,14.111,11.474,25.592,25.576,25.592h0.015   c14.103,0,25.576-11.48,25.576-25.592v-14.225c0.846,0.508,1.833,0.807,2.891,0.807h15.881c3.102,0,5.624-2.518,5.624-5.611   v-33.287C472.596,262.494,470.073,259.971,466.972,259.971z"/><rect x="453.465" y="267.971" width="11.131" height="28.523"/><path d="M466.972,259.971h-1.791c0.502-6.375,0.771-12.787,0.771-19.115c0-59.785-21.658-116.008-60.983-158.307   c-39.4-42.379-91.806-65.719-147.564-65.719c-55.757,0-108.16,23.336-147.557,65.707c-39.329,42.299-60.984,98.525-60.977,158.318   c0,6.348,0.268,12.762,0.768,19.115h-4.622c-3.094,0-5.611,2.523-5.611,5.625v33.287c0,3.094,2.517,5.611,5.611,5.611h3.875   c-0.188,41.785,19.504,85.227,54.47,119.813c33.565,33.201,76.291,53.9,118.176,57.482c1.072,7.188,7.262,12.725,14.736,12.725   h24.138c8.233,0,14.932-6.699,14.932-14.932c0-8.234-6.698-14.934-14.932-14.934h-24.138c-6.195,0-11.518,3.801-13.769,9.195   c-40.132-3.352-81.189-23.248-113.518-55.227c-33.451-33.088-52.289-74.469-52.096-114.123h4.021c1.051,0,2.032-0.295,2.875-0.797   v14.215c0,14.111,11.48,25.592,25.592,25.592c14.111,0,25.591-11.48,25.591-25.592v-71.361c0-14.102-11.48-25.576-25.591-25.576   c-14.111,0-25.592,11.475-25.592,25.576v14.219c-0.843-0.504-1.824-0.799-2.875-0.799h-3.25c-0.516-6.35-0.792-12.768-0.792-19.115   c-0.007-57.766,20.888-112.057,58.835-152.871c37.866-40.727,88.189-63.154,141.698-63.154   c110.582,0,200.548,96.908,200.548,216.025c0,6.326-0.279,12.742-0.798,19.115h-6.063c-1.058,0-2.045,0.299-2.891,0.809v-14.229   c0-14.102-11.474-25.576-25.591-25.576c-14.103,0-25.576,11.475-25.576,25.576v71.361c0,14.111,11.474,25.592,25.576,25.592h0.015   c14.103,0,25.576-11.48,25.576-25.592v-14.225c0.846,0.508,1.833,0.807,2.891,0.807h15.881c3.102,0,5.624-2.518,5.624-5.611   v-33.287C472.596,262.494,470.073,259.971,466.972,259.971z M236.272,472.648h24.138c3.822,0,6.932,3.109,6.932,6.934   c0,3.822-3.109,6.932-6.932,6.932h-24.138c-3.814,0-6.918-3.109-6.918-6.932C229.354,475.758,232.458,472.648,236.272,472.648z    M71.786,246.551c0-9.691,7.892-17.576,17.592-17.576c9.7,0,17.591,7.885,17.591,17.576v71.361c0,9.701-7.891,17.592-17.591,17.592   c-9.7,0-17.592-7.891-17.592-17.592V246.551z M58.536,267.971v28.523H47.404v-28.523H58.536z M440.2,317.912   c0,9.701-7.885,17.592-17.576,17.592h-0.015c-9.691,0-17.576-7.891-17.576-17.592v-71.361c0-9.691,7.885-17.576,17.591-17.576   c9.691,0,17.576,7.885,17.576,17.576V317.912z M464.596,296.494h-11.131v-28.523h11.131V296.494z"/></g><text x="0" y="527" fill="#000000" font-size="5px" font-weight="bold" font-family="'Helvetica Neue', Helvetica, Arial-Unicode, Arial, Sans-serif">Created by Icon Market</text><text x="0" y="532" fill="#000000" font-size="5px" font-weight="bold" font-family="'Helvetica Neue', Helvetica, Arial-Unicode, Arial, Sans-serif">from the Noun Project</text></svg>