<svg xmlns:dc="http://purl.org/dc/elements/1.1/" xmlns:cc="http://creativecommons.org/ns#" xmlns:rdf="http://www.w3.org/1999/02/22-rdf-syntax-ns#" xmlns:svg="http://www.w3.org/2000/svg" xmlns="http://www.w3.org/2000/svg" xmlns:sodipodi="http://sodipodi.sourceforge.net/DTD/sodipodi-0.dtd" xmlns:inkscape="http://www.inkscape.org/namespaces/inkscape" version="1.1" x="0px" y="0px" viewBox="0 0 100 125"><g transform="translate(0,-952.36218)"><path style="font-size:medium;font-style:normal;font-variant:normal;font-weight:normal;font-stretch:normal;text-indent:0;text-align:start;text-decoration:none;line-height:normal;letter-spacing:normal;word-spacing:normal;text-transform:none;direction:ltr;block-progression:tb;writing-mode:lr-tb;text-anchor:start;baseline-shift:baseline;opacity:1;color:#000000;fill:#000000;fill-opacity:1;stroke:none;stroke-width:3.99999856999999980;marker:none;visibility:visible;display:inline;overflow:visible;enable-background:accumulate;font-family:Sans;-inkscape-font-specification:Sans" d="M 50 6 C 25.723161 6 6 25.72323 6 50 A 2.0001993 2.0001993 0 1 0 10 50 C 10 27.88499 27.884921 10 50 10 C 63.978157 10 76.252845 17.159693 83.40625 28 L 68 28 A 2.0001993 2.0001993 0 1 0 68 32 L 88 32 A 2.0001993 2.0001993 0 0 0 90 30 L 90 10 A 2.0001993 2.0001993 0 0 0 87.78125 7.96875 A 2.0001993 2.0001993 0 0 0 86 10 L 86 24.71875 C 78.03439 13.404475 64.873311 6 50 6 z M 91.78125 47.96875 A 2.0001993 2.0001993 0 0 0 90 50 C 90 72.1149 72.115076 90 50 90 C 36.021846 90 23.747155 82.84421 16.59375 72 L 32 72 A 2.0001993 2.0001993 0 1 0 32 68 L 12 68 A 2.0001993 2.0001993 0 0 0 11.8125 68 A 2.0001993 2.0001993 0 0 0 10 70 L 10 90 A 2.0001993 2.0001993 0 1 0 14 90 L 14 75.28125 C 21.96561 86.600586 35.126685 94 50 94 C 74.276842 94 94 74.2767 94 50 A 2.0001993 2.0001993 0 0 0 91.78125 47.96875 z " transform="translate(0,952.36218)"/></g><text x="0" y="115" fill="#000000" font-size="5px" font-weight="bold" font-family="'Helvetica Neue', Helvetica, Arial-Unicode, Arial, Sans-serif">Created by artworkbean</text><text x="0" y="120" fill="#000000" font-size="5px" font-weight="bold" font-family="'Helvetica Neue', Helvetica, Arial-Unicode, Arial, Sans-serif">from the Noun Project</text></svg>