<svg xmlns="http://www.w3.org/2000/svg" xmlns:xlink="http://www.w3.org/1999/xlink" version="1.1" x="0px" y="0px" viewBox="0 0 100 125" enable-background="new 0 0 100 100" xml:space="preserve"><g><path d="M81.408,80c3.457-1.045,5.991-4.225,6.069-8H93.5V49.937l-16.886-16.84H65.5V17H5.501v3H62.5v13.097V57h-57v3h4v12h10.606   c0.078,3.775,2.612,6.955,6.069,8H13.5v3h81v-3H81.408z M78.944,77.365c-3.057,0-5.543-2.486-5.543-5.543s2.486-5.543,5.543-5.543   c3.056,0,5.542,2.486,5.542,5.543S82,77.365,78.944,77.365z M75.374,36.097L89.314,50H73.5v-7h-3v10h19.982v-1.836l0.018,0.018V69   h-3.503c-1.169-3.326-4.333-5.721-8.053-5.721c-3.721,0-6.884,2.395-8.054,5.721H65.5v-9V36.097H75.374z M20.587,69H12.5v-9h50v9   H36.693c-1.17-3.326-4.333-5.721-8.054-5.721C24.92,63.279,21.756,65.674,20.587,69z M23.098,71.822   c0-3.057,2.486-5.543,5.542-5.543c3.057,0,5.543,2.486,5.543,5.543s-2.486,5.543-5.543,5.543   C25.584,77.365,23.098,74.879,23.098,71.822z M37.174,72H62.5H64h6.41c0.078,3.775,2.612,6.955,6.07,8H31.104   C34.563,78.955,37.096,75.775,37.174,72z"/><rect x="5.5" y="47" width="4.025" height="3"/><rect x="5.5" y="37" width="6.037" height="3"/><rect x="5.5" y="27" width="8.049" height="3"/><rect x="6.475" y="80" width="4.025" height="3"/></g><text x="0" y="115" fill="#000000" font-size="5px" font-weight="bold" font-family="'Helvetica Neue', Helvetica, Arial-Unicode, Arial, Sans-serif">Created by Nikita Kozin</text><text x="0" y="120" fill="#000000" font-size="5px" font-weight="bold" font-family="'Helvetica Neue', Helvetica, Arial-Unicode, Arial, Sans-serif">from the Noun Project</text></svg>