<svg xmlns="http://www.w3.org/2000/svg" viewBox="0 0 100 125" x="0px" y="0px"><title>Payment And Finance vol.1</title><g data-name="Layer 10"><path d="M92.85547,66.76373V25.293A16.8052,16.8052,0,0,0,76.06934,8.50684H19.3916A16.8052,16.8052,0,0,0,2.60547,25.293V67.44434A16.8052,16.8052,0,0,0,19.3916,84.23047H61.35938v.07422a7.19645,7.19645,0,0,0,7.18847,7.18847H90.33691a7.13192,7.13192,0,0,0,7.05762-7.18847V73.41113A6.942,6.942,0,0,0,92.85547,66.76373Zm-86.25-34.20709h82.25v3.542h-82.25ZM19.3916,12.50684H76.06934A12.8,12.8,0,0,1,88.85547,25.293v3.26367h-82.25V25.293A12.8003,12.8003,0,0,1,19.3916,12.50684Zm0,67.72363A12.8003,12.8003,0,0,1,6.60547,67.44434V40.09863h82.25v26.124h-.12891V60.50977a7.11393,7.11393,0,0,0-7.10644-7.10645H77.13281a7.11372,7.11372,0,0,0-7.10547,7.10645v5.71289H68.54785a7.19645,7.19645,0,0,0-7.18847,7.18847v6.81934Zm65.335-14.00781H74.02734V60.50977a3.10978,3.10978,0,0,1,3.10547-3.10645h4.48731a3.11,3.11,0,0,1,3.10644,3.10645Zm8.668,18.082a3.09155,3.09155,0,0,1-3.05762,3.18847H68.54785a3.19249,3.19249,0,0,1-3.18847-3.18847V73.41113a3.19249,3.19249,0,0,1,3.18847-3.18847H90.0166a2.01172,2.01172,0,0,0,.561.117c.01794.0014.03424.01.05224.01093a2.91716,2.91716,0,0,1,2.76465,3.06054Z"/><path d="M30.88916,66.22266H19.74805a2,2,0,1,0,0,4H30.88916a2,2,0,0,0,0-4Z"/><path d="M78.99023,76.89941a1.68927,1.68927,0,0,0-.38085.11036,1.90349,1.90349,0,0,0-.33985.17968,2.66,2.66,0,0,0-.30957.25,2.02231,2.02231,0,0,0-.58008,1.41993,1.972,1.972,0,0,0,.15039.76074,1.8722,1.8722,0,0,0,.42969.64941,1.98881,1.98881,0,0,0,1.41992.58985,2.5116,2.5116,0,0,0,.38965-.04,2.21719,2.21719,0,0,0,.37012-.10938,1.70231,1.70231,0,0,0,.35058-.19043,1.683,1.683,0,0,0,.29981-.25,1.98313,1.98313,0,0,0,.58984-1.41015A2.04927,2.04927,0,0,0,80.79,77.43945,1.9977,1.9977,0,0,0,78.99023,76.89941Z"/><path d="M42.98975,67.46a1.70051,1.70051,0,0,0-.19-.35058,1.76962,1.76962,0,0,0-.23974-.29981,2.023,2.023,0,0,0-1.81006-.5498,1.58542,1.58542,0,0,0-.37012.12011,2.34447,2.34447,0,0,0-.35009.17969,1.83055,1.83055,0,0,0-.29981.25,1.42668,1.42668,0,0,0-.25.29981A2.34009,2.34009,0,0,0,39.29,67.46a2.26677,2.26677,0,0,0-.11035.37012,1.73128,1.73128,0,0,0-.04.38965,1.82634,1.82634,0,0,0,.04.40039,1.719,1.719,0,0,0,.11035.37011,1.64988,1.64988,0,0,0,.18994.33985,1.78241,1.78241,0,0,0,.25.30957,1.9965,1.9965,0,0,0,1.40967.58008,2.02,2.02,0,0,0,.77-.15039,2.16633,2.16633,0,0,0,.65039-.42969,3.84788,3.84788,0,0,0,.25-.30957,2.2635,2.2635,0,0,0,.17969-.33985,1.71709,1.71709,0,0,0,.10986-.37011,1.79756,1.79756,0,0,0,.04-.40039,1.704,1.704,0,0,0-.04-.38965A1.56861,1.56861,0,0,0,42.98975,67.46Z"/></g><text x="0" y="115" fill="#000000" font-size="5px" font-weight="bold" font-family="'Helvetica Neue', Helvetica, Arial-Unicode, Arial, Sans-serif">Created by Bloodline</text><text x="0" y="120" fill="#000000" font-size="5px" font-weight="bold" font-family="'Helvetica Neue', Helvetica, Arial-Unicode, Arial, Sans-serif">from the Noun Project</text></svg>